HIERARCHY
ROOT Pelvis
{
	OFFSET 0.000000 0.000000 0.000000
	CHANNELS 6 Xposition Yposition Zposition Xrotation Yrotation Zrotation
	JOINT LeftUpLeg_virtual
	{
		OFFSET 0.000000 0.000000 0.000000
		CHANNELS 3 Xrotation Yrotation Zrotation
		JOINT LeftUpLeg
		{
			OFFSET 8.479700 -4.795502 -0.379100
			CHANNELS 3 Xrotation Yrotation Zrotation
			JOINT LeftLeg
			{
				OFFSET 0.024144 -32.555107 0.112900
				CHANNELS 3 Xrotation Yrotation Zrotation
				JOINT LeftFoot
				{
					OFFSET -0.024144 -32.638630 -3.012600
					CHANNELS 3 Xrotation Yrotation Zrotation
					JOINT LeftToeBase
					{
						OFFSET 0.970200 -13.225400 11.864200
						CHANNELS 3 Xrotation Yrotation Zrotation
						End Site
						{
							OFFSET 0 0 0
						}
					}
				}
			}
		}
	}
	JOINT RightUpLeg_virtual
	{
		OFFSET 0.000000 0.000000 0.000000
		CHANNELS 3 Xrotation Yrotation Zrotation
		JOINT RightUpLeg
		{
			OFFSET -8.479700 -4.795502 -0.379100
			CHANNELS 3 Xrotation Yrotation Zrotation
			JOINT RightLeg
			{
				OFFSET -0.023144 -32.555092 0.112900
				CHANNELS 3 Xrotation Yrotation Zrotation
				JOINT RightFoot
				{
					OFFSET 0.023144 -32.638641 -3.012700
					CHANNELS 3 Xrotation Yrotation Zrotation
					JOINT RightToeBase
					{
						OFFSET -0.970200 -13.225400 11.864200
						CHANNELS 3 Xrotation Yrotation Zrotation
						End Site
						{
							OFFSET 0 0 0
						}
					}
				}
			}
		}
	}
	JOINT Hips_virtual
	{
		OFFSET 0.000000 0.000000 0.000000
		CHANNELS 3 Xrotation Yrotation Zrotation
		JOINT Hips
		{
			OFFSET -0.000000 -0.000000 -0.000000
			CHANNELS 3 Xrotation Yrotation Zrotation
			JOINT Spine
			{
				OFFSET 0.000000 7.722000 1.166200
				CHANNELS 3 Xrotation Yrotation Zrotation
				JOINT Spine1
				{
					OFFSET 0.000000 12.024101 0.248800
					CHANNELS 3 Xrotation Yrotation Zrotation
					JOINT Spine2
					{
						OFFSET 0.000000 11.502998 -0.491200
						CHANNELS 3 Xrotation Yrotation Zrotation
						JOINT Neck_virtual
						{
							OFFSET 0.000000 0.000000 0.000000
							CHANNELS 3 Xrotation Yrotation Zrotation
							JOINT Neck
							{
								OFFSET 0.000000 18.430702 -3.123100
								CHANNELS 3 Xrotation Yrotation Zrotation
								JOINT Head
								{
									OFFSET 0.000000 9.051102 1.034000
									CHANNELS 3 Xrotation Yrotation Zrotation
									End Site
									{
										OFFSET 0 0 0
									}
								}
							}
						}
						JOINT LeftShoulder_virtual
						{
							OFFSET 0.000000 0.000000 0.000000
							CHANNELS 3 Xrotation Yrotation Zrotation
							JOINT LeftShoulder
							{
								OFFSET 6.197800 13.665199 -4.064700
								CHANNELS 3 Xrotation Yrotation Zrotation
								JOINT LeftArm
								{
									OFFSET 7.778100 -0.187103 -1.709300
									CHANNELS 3 Xrotation Yrotation Zrotation
									JOINT LeftForeArm
									{
										OFFSET 22.049376 0.000000 0.000000
										CHANNELS 3 Xrotation Yrotation Zrotation
										JOINT LeftHand
										{
											OFFSET 23.009392 0.000000 0.000000
											CHANNELS 3 Xrotation Yrotation Zrotation
											End Site
											{
												OFFSET 0 0 0
											}
										}
									}
								}
							}
						}
						JOINT RightShoulder_virtual
						{
							OFFSET 0.000000 0.000000 0.000000
							CHANNELS 3 Xrotation Yrotation Zrotation
							JOINT RightShoulder
							{
								OFFSET -6.197800 13.665199 -4.064700
								CHANNELS 3 Xrotation Yrotation Zrotation
								JOINT RightArm
								{
									OFFSET -7.778100 -0.187103 -1.709300
									CHANNELS 3 Xrotation Yrotation Zrotation
									JOINT RightForeArm
									{
										OFFSET -22.049376 0.000000 0.000000
										CHANNELS 3 Xrotation Yrotation Zrotation
										JOINT RightHand
										{
											OFFSET -23.009392 0.000000 0.000000
											CHANNELS 3 Xrotation Yrotation Zrotation
											End Site
											{
												OFFSET 0 0 0
											}
										}
									}
								}
							}
						}
					}
				}
			}
		}
	}
}
MOTION
Frames: 6
Frame Time: 0.03333333
-5.530898 78.117332 68.106438 0.000000 0.000000 0.000000 23.434176 13.192124 -8.463684 -35.274341 -2.560096 -6.400703 34.249243 -4.588397 -3.212961 -21.592817 2.448202 10.901135 0.000000 0.000000 0.000000 23.434176 13.192124 -8.463684 -56.916130 -6.243515 -13.390267 53.391797 -6.968456 0.696621 9.703437 -4.309234 16.432643 0.000000 0.000000 0.000000 23.434176 13.192124 -8.463684 0.000001 0.000001 -0.000000 9.549693 1.165599 -1.806345 -0.471733 1.782880 -0.358115 0.000000 0.000000 0.000000 -0.315421 2.367529 -0.492587 -11.049973 -0.300767 0.541616 0.000000 0.000000 0.000000 -0.315421 2.367529 -0.492587 0.804519 -1.055560 -19.731167 11.314143 -4.215693 -51.272553 -0.000004 -61.671786 0.000002 0.000000 0.000000 0.000000 -0.315421 2.367529 -0.492587 0.318338 6.828683 17.985684 14.222248 -10.989040 46.953852 0.000007 67.377801 0.000018 0.000000 0.000000 0.000000 
-5.471063 78.088272 70.093910 0.000000 0.000000 0.000000 23.699833 13.839756 -8.745805 -33.355960 -4.214564 -6.171591 33.323229 -3.520706 -3.503527 -22.809644 1.877331 10.370531 0.000000 0.000000 0.000000 23.699833 13.839756 -8.745805 -58.466494 -5.925509 -13.476196 50.326497 -6.967471 0.409075 9.801549 -5.468824 15.461318 0.000000 0.000000 0.000000 23.699833 13.839756 -8.745805 -0.000001 -0.000000 0.000001 9.417268 0.835426 -1.667402 -0.422851 1.770879 -0.370541 0.000000 0.000000 0.000000 -0.273306 2.351417 -0.497367 -11.032308 -0.263010 0.489893 0.000000 0.000000 0.000000 -0.273306 2.351417 -0.497367 0.828891 -1.055384 -19.581370 11.301115 -4.179482 -51.475171 0.000021 -61.665509 0.000045 0.000000 0.000000 0.000000 -0.273306 2.351417 -0.497367 0.322455 6.792932 17.816157 14.532756 -11.075074 47.066024 0.000008 67.339620 0.000007 0.000000 0.000000 0.000000 
-5.420403 77.967590 72.089149 0.000000 0.000000 0.000000 23.965419 14.361120 -8.935855 -31.439644 -5.523950 -5.897656 32.506376 -2.364940 -3.688070 -24.103767 1.101472 9.763335 0.000000 0.000000 0.000000 23.965419 14.361120 -8.935855 -60.400039 -5.271779 -13.473645 47.286527 -6.481794 0.313755 10.399739 -6.764945 14.870503 0.000000 0.000000 0.000000 23.965419 14.361120 -8.935855 0.000000 0.000000 0.000000 9.242965 0.495209 -1.635967 -0.374504 1.775979 -0.381387 0.000000 0.000000 0.000000 -0.232032 2.353974 -0.505842 -11.041552 -0.226224 0.447396 0.000000 0.000000 0.000000 -0.232032 2.353974 -0.505842 0.850975 -1.055168 -19.445707 11.378945 -4.063368 -51.572624 0.000001 -61.739603 -0.000006 0.000000 0.000000 0.000000 -0.232032 2.353974 -0.505842 0.330585 6.717010 17.586537 14.906741 -11.096839 47.280731 -0.000018 67.421166 0.000027 0.000000 0.000000 0.000000 
-5.385697 77.689499 74.170120 0.000000 0.000000 0.000000 24.141626 14.804143 -8.937152 -29.480200 -6.637717 -5.731727 31.998582 -1.169123 -3.770342 -25.689730 0.323909 9.099486 0.000000 0.000000 0.000000 24.141626 14.804143 -8.937152 -62.461902 -3.925492 -13.310539 44.405942 -8.169794 -0.094605 11.814655 -5.589576 15.117862 0.000000 0.000000 0.000000 24.141626 14.804143 -8.937152 -0.000001 0.000000 -0.000001 9.053675 0.145818 -1.835631 -0.327082 1.791587 -0.387871 0.000000 0.000000 0.000000 -0.191797 2.389390 -0.519249 -11.094802 -0.194234 0.432493 0.000000 0.000000 0.000000 -0.191797 2.389390 -0.519249 0.870928 -1.054920 -19.323109 11.546882 -4.117306 -51.490911 0.000008 -61.781417 0.000005 0.000000 0.000000 0.000000 -0.191797 2.389390 -0.519249 0.359532 6.327639 17.328659 15.284191 -11.054877 47.591180 -0.000001 67.687004 -0.000002 0.000000 0.000000 0.000000 
-5.361779 77.364998 76.258423 0.000000 0.000000 0.000000 24.277521 15.240727 -8.823849 -27.361033 -7.759943 -5.461338 31.256633 0.006979 -4.130323 -27.172519 -0.480747 8.502733 0.000000 0.000000 0.000000 24.277521 15.240727 -8.823849 -64.206285 -2.032252 -13.124167 42.934832 -9.231580 0.122623 11.766114 -5.312808 16.040404 0.000000 0.000000 0.000000 24.277521 15.240727 -8.823849 -0.000001 0.000000 -0.000001 8.872727 -0.211408 -2.166408 -0.280804 1.810334 -0.395185 0.000000 0.000000 0.000000 -0.152858 2.438995 -0.533947 -11.165456 -0.164563 0.434149 0.000000 0.000000 0.000000 -0.152858 2.438995 -0.533947 0.890505 -1.054639 -19.202932 11.762130 -4.398522 -51.352982 0.000012 -61.704346 0.000015 0.000000 0.000000 0.000000 -0.152858 2.438995 -0.533947 0.386619 5.917546 17.090631 15.677214 -11.013528 47.931754 0.000010 67.967124 0.000014 0.000000 0.000000 0.000000 
-5.342447 76.955811 78.354240 0.000000 0.000000 0.000000 24.366732 15.693036 -8.629332 -25.169454 -8.872855 -5.217951 30.512873 1.232335 -4.497946 -28.685657 -1.293581 7.860473 0.000000 0.000000 0.000000 24.366732 15.693036 -8.629332 -65.856739 -0.491439 -12.846689 42.672041 -9.903364 0.599246 9.640651 -4.089038 15.836617 0.000000 0.000000 0.000000 24.366732 15.693036 -8.629332 0.000000 0.000000 0.000000 8.725731 -0.567533 -2.596405 -0.235990 1.825501 -0.401665 0.000000 0.000000 0.000000 -0.115453 2.497908 -0.547447 -11.254810 -0.136075 0.447427 0.000000 0.000000 0.000000 -0.115453 2.497908 -0.547447 0.909877 -1.054323 -19.083776 12.027583 -4.504867 -51.165552 0.000010 -61.918711 0.000024 0.000000 0.000000 0.000000 -0.115453 2.497908 -0.547447 0.404812 5.611055 16.992790 16.107845 -11.110376 48.250936 0.000017 68.336398 -0.000009 0.000000 0.000000 0.000000 
